# xmcd
#
# Track frame offsets:
#	150
#	16588
#	32565
#	45817
#	61509
#	79159
#	93469
#	109455
#	127181
#	140730
#	156507
#	171614
#	184023
#	198655
#	215366
#
# Disc length: 3087 seconds
#
# Revision: 0
# Processed by: cddbd v1.5.2PL0 Copyright (c) Steve Scherf et al.
# Submitted via: EasyCDDAExtractor 11.1.0.1
#
DISCID=d10c0d0f
DTITLE=Bosák Jiří - Pivní pěna - Lidovky P-T [CD5)
DYEAR=2007
DGENRE=Country
TTITLE0=Pod jednou střechou
TTITLE1=Pod tou naší starou lípou
TTITLE2=Poděbradská brána
TTITLE3=Pohádka mladí
TTITLE4=Putimská brána
TTITLE5=Ramona
TTITLE6=Slepička kropenatá
TTITLE7=Spadl lístek z javora
TTITLE8=Stavěli tesaři
TTITLE9=Strážkovickej kostelíček
TTITLE10=Šimi, šimi
TTITLE11=Široký, hluboký
TTITLE12=Šla Andulka do háječku
TTITLE13=Šumavo, Šumavo
TTITLE14=Ta doudlebská chasa
EXTD=
EXTT0=
EXTT1=
EXTT2=
EXTT3=
EXTT4=
EXTT5=
EXTT6=
EXTT7=
EXTT8=
EXTT9=
EXTT10=
EXTT11=
EXTT12=
EXTT13=
EXTT14=
PLAYORDER=
